<?xml version="1.0" encoding="UTF-8" standalone="no"?> <svg id="Layer_1" data-name="Layer 1" xmlns="http://www.w3.org/2000/svg" viewBox="0 0 64 64"><defs><style>.cls-1{fill:#7aa94c;}.cls-2{fill:#8f0005;}</style></defs><path class="cls-1" d="M32.07,6A26,26,0,0,1,58,30h4A30,30,0,0,0,2.15,30h4A26,26,0,0,1,32.07,6Z"/><path class="cls-1" d="M32.07,58A26,26,0,0,1,6.16,34h-4A30,30,0,0,0,62,34H58A26,26,0,0,1,32.07,58Z"/><path class="cls-2" d="M32,21.93A10,10,0,0,0,17.86,36.07L32,50.21,46.14,36.07A10,10,0,0,0,32,21.93Z"/></svg>